<?xml version="1.0" encoding="utf-8"?>
<!-- Svg Vector Icons : http://www.onlinewebfonts.com/icon -->
<!DOCTYPE svg PUBLIC "-//W3C//DTD SVG 1.1//EN" "http://www.w3.org/Graphics/SVG/1.1/DTD/svg11.dtd">
<svg version="1.1" xmlns="http://www.w3.org/2000/svg" xmlns:xlink="http://www.w3.org/1999/xlink" x="0px" y="0px" viewBox="0 0 1000 1000" enable-background="new 0 0 1000 1000" xml:space="preserve">
<metadata> Svg Vector Icons : http://www.onlinewebfonts.com/icon </metadata>
<g><g transform="translate(0.000000,511.000000) scale(0.100000,-0.100000)"><path d="M3735.8,4522c-94.1-43.1-154.8-105.8-196-201.9c-25.5-64.7-29.4-521.4-29.4-4210.1s3.9-4145.4,29.4-4210.1c41.2-96,101.9-158.8,196-201.9c72.5-33.3,152.9-37.2,1244.6-37.2c791.8,0,1191.7,7.9,1244.6,21.6c100,27.5,215.6,143.1,243,243c15.7,56.8,21.6,1252.5,21.6,4200.3c0,3675-3.9,4129.7-29.4,4194.4c-41.2,96-101.9,158.8-196,201.9c-72.5,33.3-152.9,37.2-1264.2,37.2C3888.7,4559.2,3808.3,4555.3,3735.8,4522z M5744.8,110v-3704.4H5000h-744.8V110v3704.4H5000h744.8V110z"/><path d="M7303,2444.4c-94.1-43.1-154.8-105.8-196-201.9c-25.5-64.7-29.4-419.4-29.4-3171.3c0-2751.8,3.9-3106.6,29.4-3171.3c41.2-96,101.9-158.8,196-201.9c72.5-33.3,150.9-37.2,1166.2-37.2c735,0,1113.3,7.9,1166.2,21.6c100,27.5,215.6,143.1,243,243c15.7,54.9,21.6,972.1,21.6,3161.5c0,2738.1-3.9,3090.9-29.4,3155.6c-41.2,96-101.9,158.8-196,201.9c-72.5,33.3-150.9,37.2-1185.8,37.2S7375.5,2477.7,7303,2444.4z M9155.2-928.8v-2665.6h-666.4h-666.4v2665.6v2665.6h666.4h666.4V-928.8z"/><path d="M325.4,915.6c-94.1-43.1-154.8-105.8-196-201.9C103.9,649,100,368.7,100-1693.2s3.9-2342.2,29.4-2406.9c41.2-96,101.9-158.8,196-201.9c72.5-33.3,150.9-37.2,1166.2-37.2c735,0,1113.3,7.9,1166.2,21.6c100,27.5,215.6,143.1,243,243c29.4,105.8,29.4,4651.1,2,4756.9c-27.4,98-107.8,190.1-205.8,233.2c-72.5,33.3-152.9,37.2-1185.8,37.2C476.3,952.8,397.9,948.9,325.4,915.6z M2177.6-1693.2v-1901.2h-666.4H844.8v1901.2V208h666.4h666.4V-1693.2z"/></g></g>
</svg>